<?xml version="1.0"?>
<svg xmlns="http://www.w3.org/2000/svg" xmlns:xlink="http://www.w3.org/1999/xlink" version="1.1" width="258px" height="258px" viewBox="0 0 258 258"><rect x="0" y="0" width="258" height="258" fill="#ffffff" fill-opacity="1"/><path fill="#000000" fill-opacity="1" d="M4,4L74,4L74,14L4,14ZM84,4L94,4L94,14L84,14ZM104,4L114,4L114,14L104,14ZM124,4L134,4L134,14L124,14ZM144,4L154,4L154,14L144,14ZM184,4L254,4L254,14L184,14ZM4,14L14,14L14,24L4,24ZM64,14L74,14L74,24L64,24ZM94,14L154,14L154,24L94,24ZM164,14L174,14L174,24L164,24ZM184,14L194,14L194,24L184,24ZM244,14L254,14L254,24L244,24ZM4,24L14,24L14,34L4,34ZM24,24L54,24L54,34L24,34ZM64,24L74,24L74,34L64,34ZM84,24L114,24L114,34L84,34ZM154,24L164,24L164,34L154,34ZM184,24L194,24L194,34L184,34ZM204,24L234,24L234,34L204,34ZM244,24L254,24L254,34L244,34ZM4,34L14,34L14,44L4,44ZM24,34L54,34L54,44L24,44ZM64,34L74,34L74,44L64,44ZM84,34L114,34L114,44L84,44ZM124,34L174,34L174,44L124,44ZM184,34L194,34L194,44L184,44ZM204,34L234,34L234,44L204,44ZM244,34L254,34L254,44L244,44ZM4,44L14,44L14,54L4,54ZM24,44L54,44L54,54L24,54ZM64,44L74,44L74,54L64,54ZM84,44L94,44L94,54L84,54ZM114,44L134,44L134,54L114,54ZM144,44L174,44L174,54L144,54ZM184,44L194,44L194,54L184,54ZM204,44L234,44L234,54L204,54ZM244,44L254,44L254,54L244,54ZM4,54L14,54L14,64L4,64ZM64,54L74,54L74,64L64,64ZM104,54L124,54L124,64L104,64ZM144,54L154,54L154,64L144,64ZM184,54L194,54L194,64L184,64ZM244,54L254,54L254,64L244,64ZM4,64L74,64L74,74L4,74ZM84,64L94,64L94,74L84,74ZM104,64L114,64L114,74L104,74ZM124,64L134,64L134,74L124,74ZM144,64L154,64L154,74L144,74ZM164,64L174,64L174,74L164,74ZM184,64L254,64L254,74L184,74ZM104,74L114,74L114,84L104,84ZM124,74L134,74L134,84L124,84ZM144,74L174,74L174,84L144,84ZM4,84L44,84L44,94L4,94ZM64,84L74,84L74,94L64,94ZM84,84L94,84L94,94L84,94ZM104,84L134,84L134,94L104,94ZM174,84L184,84L184,94L174,94ZM204,84L234,84L234,94L204,94ZM244,84L254,84L254,94L244,94ZM4,94L24,94L24,104L4,104ZM54,94L64,94L64,104L54,104ZM84,94L94,94L94,104L84,104ZM104,94L114,94L114,104L104,104ZM124,94L134,94L134,104L124,104ZM144,94L184,94L184,104L144,104ZM194,94L214,94L214,104L194,104ZM244,94L254,94L254,104L244,104ZM4,104L14,104L14,114L4,114ZM34,104L74,104L74,114L34,114ZM84,104L144,104L144,114L84,114ZM214,104L254,104L254,114L214,114ZM4,114L14,114L14,124L4,124ZM74,114L114,114L114,124L74,124ZM154,114L164,114L164,124L154,124ZM174,114L204,114L204,124L174,124ZM214,114L234,114L234,124L214,124ZM244,114L254,114L254,124L244,124ZM34,124L44,124L44,134L34,134ZM54,124L74,124L74,134L54,134ZM94,124L114,124L114,134L94,134ZM124,124L164,124L164,134L124,134ZM184,124L224,124L224,134L184,134ZM234,124L254,124L254,134L234,134ZM14,134L34,134L34,144L14,144ZM54,134L64,134L64,144L54,144ZM74,134L104,134L104,144L74,144ZM114,134L134,134L134,144L114,144ZM154,134L174,134L174,144L154,144ZM184,134L204,134L204,144L184,144ZM214,134L224,134L224,144L214,144ZM244,134L254,134L254,144L244,144ZM14,144L24,144L24,154L14,154ZM34,144L84,144L84,154L34,154ZM94,144L124,144L124,154L94,154ZM144,144L184,144L184,154L144,154ZM194,144L224,144L224,154L194,154ZM234,144L244,144L244,154L234,154ZM4,154L14,154L14,164L4,164ZM44,154L54,154L54,164L44,164ZM74,154L84,154L84,164L74,164ZM114,154L124,154L124,164L114,164ZM134,154L144,154L144,164L134,164ZM164,154L184,154L184,164L164,164ZM234,154L254,154L254,164L234,164ZM24,164L34,164L34,174L24,174ZM54,164L74,164L74,174L54,174ZM84,164L94,164L94,174L84,174ZM104,164L114,164L114,174L104,174ZM164,164L214,164L214,174L164,174ZM234,164L244,164L244,174L234,174ZM84,174L114,174L114,184L84,184ZM134,174L154,174L154,184L134,184ZM164,174L174,174L174,184L164,184ZM204,174L234,174L234,184L204,184ZM4,184L74,184L74,194L4,194ZM94,184L114,184L114,194L94,194ZM124,184L144,184L144,194L124,194ZM164,184L174,184L174,194L164,194ZM184,184L194,184L194,194L184,194ZM204,184L214,184L214,194L204,194ZM224,184L254,184L254,194L224,194ZM4,194L14,194L14,204L4,204ZM64,194L74,194L74,204L64,204ZM94,194L104,194L104,204L94,204ZM114,194L124,194L124,204L114,204ZM134,194L154,194L154,204L134,204ZM164,194L174,194L174,204L164,204ZM204,194L214,194L214,204L204,204ZM234,194L254,194L254,204L234,204ZM4,204L14,204L14,214L4,214ZM24,204L54,204L54,214L24,214ZM64,204L74,204L74,214L64,214ZM104,204L114,204L114,214L104,214ZM144,204L154,204L154,214L144,214ZM164,204L214,204L214,214L164,214ZM224,204L234,204L234,214L224,214ZM244,204L254,204L254,214L244,214ZM4,214L14,214L14,224L4,224ZM24,214L54,214L54,224L24,224ZM64,214L74,214L74,224L64,224ZM84,214L94,214L94,224L84,224ZM104,214L114,214L114,224L104,224ZM164,214L194,214L194,224L164,224ZM204,214L214,214L214,224L204,224ZM234,214L254,214L254,224L234,224ZM4,224L14,224L14,234L4,234ZM24,224L54,224L54,234L24,234ZM64,224L74,224L74,234L64,234ZM84,224L124,224L124,234L84,234ZM134,224L144,224L144,234L134,234ZM154,224L164,224L164,234L154,234ZM174,224L184,224L184,234L174,234ZM214,224L244,224L244,234L214,234ZM4,234L14,234L14,244L4,244ZM64,234L74,234L74,244L64,244ZM84,234L144,234L144,244L84,244ZM154,234L184,234L184,244L154,244ZM204,234L214,234L214,244L204,244ZM224,234L254,234L254,244L224,244ZM4,244L74,244L74,254L4,254ZM84,244L94,244L94,254L84,254ZM104,244L114,244L114,254L104,254ZM124,244L144,244L144,254L124,254ZM154,244L164,244L164,254L154,254ZM224,244L254,244L254,254L224,254Z"/></svg>
