<?xml version="1.0" encoding="UTF-8"?>
<svg version="1.1" xmlns="http://www.w3.org/2000/svg" width="183" height="181">
<path d="M0 0 C60.39 0 120.78 0 183 0 C183 59.73 183 119.46 183 181 C122.61 181 62.22 181 0 181 C0 121.27 0 61.54 0 0 Z " fill="#FBFBFB" transform="translate(0,0)"/>
<path d="M0 0 C11.55 0 23.1 0 35 0 C35 2.31 35 4.62 35 7 C37.31 7 39.62 7 42 7 C42 4.69 42 2.38 42 0 C53.22 0 64.44 0 76 0 C76 2.31 76 4.62 76 7 C73.69 7 71.38 7 69 7 C69 11.62 69 16.24 69 21 C71.31 21 73.62 21 76 21 C76 18.69 76 16.38 76 14 C82.93 14 89.86 14 97 14 C97 9.38 97 4.76 97 0 C101.62 0 106.24 0 111 0 C111 4.62 111 9.24 111 14 C108.69 14 106.38 14 104 14 C104 18.62 104 23.24 104 28 C106.31 28 108.62 28 111 28 C111 25.69 111 23.38 111 21 C113.31 21 115.62 21 118 21 C118 25.62 118 30.24 118 35 C122.62 35 127.24 35 132 35 C132 32.69 132 30.38 132 28 C138.93 28 145.86 28 153 28 C153 30.31 153 32.62 153 35 C150.69 35 148.38 35 146 35 C146 39.62 146 44.24 146 49 C143.69 49 141.38 49 139 49 C139 46.69 139 44.38 139 42 C136.69 42 134.38 42 132 42 C132 44.31 132 46.62 132 49 C127.38 49 122.76 49 118 49 C118 51.31 118 53.62 118 56 C129.55 56 141.1 56 153 56 C153 58.31 153 60.62 153 63 C150.69 63 148.38 63 146 63 C146 67.62 146 72.24 146 77 C148.31 77 150.62 77 153 77 C153 81.62 153 86.24 153 91 C150.69 91 148.38 91 146 91 C146 95.62 146 100.24 146 105 C148.31 105 150.62 105 153 105 C153 107.31 153 109.62 153 112 C143.76 112 134.52 112 125 112 C125 114.31 125 116.62 125 119 C122.69 119 120.38 119 118 119 C118 116.69 118 114.38 118 112 C115.69 112 113.38 112 111 112 C111 109.69 111 107.38 111 105 C120.24 105 129.48 105 139 105 C139 100.38 139 95.76 139 91 C134.38 91 129.76 91 125 91 C125 93.31 125 95.62 125 98 C118.07 98 111.14 98 104 98 C104 95.69 104 93.38 104 91 C97.07 91 90.14 91 83 91 C83 88.69 83 86.38 83 84 C80.69 84 78.38 84 76 84 C76 86.31 76 88.62 76 91 C73.69 91 71.38 91 69 91 C69 93.31 69 95.62 69 98 C66.69 98 64.38 98 62 98 C62 104.93 62 111.86 62 119 C59.69 119 57.38 119 55 119 C55 107.45 55 95.9 55 84 C57.31 84 59.62 84 62 84 C62 81.69 62 79.38 62 77 C59.69 77 57.38 77 55 77 C55 72.38 55 67.76 55 63 C50.71 63 46.42 63 42 63 C42 60.69 42 58.38 42 56 C43.98 56 45.96 56 48 56 C48 53.69 48 51.38 48 49 C50.31 49 52.62 49 55 49 C55 42.07 55 35.14 55 28 C57.31 28 59.62 28 62 28 C62 23.38 62 18.76 62 14 C59.69 14 57.38 14 55 14 C55 16.31 55 18.62 55 21 C50.71 21 46.42 21 42 21 C42 23.31 42 25.62 42 28 C43.98 28 45.96 28 48 28 C48 30.31 48 32.62 48 35 C43.71 35 39.42 35 35 35 C35 37.31 35 39.62 35 42 C32.69 42 30.38 42 28 42 C28 44.31 28 46.62 28 49 C25.69 49 23.38 49 21 49 C21 46.69 21 44.38 21 42 C16.38 42 11.76 42 7 42 C7 48.93 7 55.86 7 63 C4.69 63 2.38 63 0 63 C0 46.83 0 30.66 0 14 C2.31 14 4.62 14 7 14 C7 16.31 7 18.62 7 21 C9.31 21 11.62 21 14 21 C14 16.38 14 11.76 14 7 C9.38 7 4.76 7 0 7 C0 4.69 0 2.38 0 0 Z " fill="#000000" transform="translate(4,59)"/>
<path d="M0 0 C2.31 0 4.62 0 7 0 C7 2.31 7 4.62 7 7 C18.55 7 30.1 7 42 7 C42 9.31 42 11.62 42 14 C39.69 14 37.38 14 35 14 C35 18.62 35 23.24 35 28 C37.31 28 39.62 28 42 28 C42 32.62 42 37.24 42 42 C39.69 42 37.38 42 35 42 C35 46.62 35 51.24 35 56 C37.31 56 39.62 56 42 56 C42 58.31 42 60.62 42 63 C32.76 63 23.52 63 14 63 C14 65.31 14 67.62 14 70 C11.69 70 9.38 70 7 70 C7 67.69 7 65.38 7 63 C4.69 63 2.38 63 0 63 C0 60.69 0 58.38 0 56 C9.24 56 18.48 56 28 56 C28 51.38 28 46.76 28 42 C23.38 42 18.76 42 14 42 C14 44.31 14 46.62 14 49 C7.07 49 0.14 49 -7 49 C-7 46.69 -7 44.38 -7 42 C-13.93 42 -20.86 42 -28 42 C-28 39.69 -28 37.38 -28 35 C-30.31 35 -32.62 35 -35 35 C-35 37.31 -35 39.62 -35 42 C-37.31 42 -39.62 42 -42 42 C-42 44.31 -42 46.62 -42 49 C-44.31 49 -46.62 49 -49 49 C-49 55.93 -49 62.86 -49 70 C-51.31 70 -53.62 70 -56 70 C-56 58.45 -56 46.9 -56 35 C-53.69 35 -51.38 35 -49 35 C-49 32.69 -49 30.38 -49 28 C-51.31 28 -53.62 28 -56 28 C-56 23.38 -56 18.76 -56 14 C-53.69 14 -51.38 14 -49 14 C-49 11.69 -49 9.38 -49 7 C-46.69 7 -44.38 7 -42 7 C-42 9.31 -42 11.62 -42 14 C-37.38 14 -32.76 14 -28 14 C-28 16.31 -28 18.62 -28 21 C-23.38 21 -18.76 21 -14 21 C-14 25.62 -14 30.24 -14 35 C-11.69 35 -9.38 35 -7 35 C-7 30.38 -7 25.76 -7 21 C-4.69 21 -2.38 21 0 21 C0 18.69 0 16.38 0 14 C-2.31 14 -4.62 14 -7 14 C-7 11.69 -7 9.38 -7 7 C-4.69 7 -2.38 7 0 7 C0 4.69 0 2.38 0 0 Z " fill="#000000" transform="translate(115,108)"/>
<path d="M0 0 C15.84 0 31.68 0 48 0 C48 15.84 48 31.68 48 48 C32.16 48 16.32 48 0 48 C0 32.16 0 16.32 0 0 Z " fill="#F3F3F3" transform="translate(4,129)"/>
<path d="M0 0 C15.84 0 31.68 0 48 0 C48 15.84 48 31.68 48 48 C32.16 48 16.32 48 0 48 C0 32.16 0 16.32 0 0 Z " fill="#F3F3F3" transform="translate(129,4)"/>
<path d="M0 0 C15.84 0 31.68 0 48 0 C48 15.84 48 31.68 48 48 C32.16 48 16.32 48 0 48 C0 32.16 0 16.32 0 0 Z " fill="#F2F2F2" transform="translate(4,4)"/>
<path d="M0 0 C2.31 0 4.62 0 7 0 C7 4.62 7 9.24 7 14 C9.31 14 11.62 14 14 14 C14 11.69 14 9.38 14 7 C20.93 7 27.86 7 35 7 C35 4.69 35 2.38 35 0 C37.31 0 39.62 0 42 0 C42 2.31 42 4.62 42 7 C46.62 7 51.24 7 56 7 C56 11.62 56 16.24 56 21 C53.69 21 51.38 21 49 21 C49 23.31 49 25.62 49 28 C51.31 28 53.62 28 56 28 C56 36.91 56 45.82 56 55 C53.69 55 51.38 55 49 55 C49 50.71 49 46.42 49 42 C46.69 42 44.38 42 42 42 C42 43.98 42 45.96 42 48 C39.69 48 37.38 48 35 48 C35 46.02 35 44.04 35 42 C32.69 42 30.38 42 28 42 C28 39.69 28 37.38 28 35 C32.62 35 37.24 35 42 35 C42 32.69 42 30.38 42 28 C37.38 28 32.76 28 28 28 C28 23.38 28 18.76 28 14 C25.69 14 23.38 14 21 14 C21 18.62 21 23.24 21 28 C18.69 28 16.38 28 14 28 C14 34.6 14 41.2 14 48 C11.69 48 9.38 48 7 48 C7 41.4 7 34.8 7 28 C2.38 28 -2.24 28 -7 28 C-7 25.69 -7 23.38 -7 21 C-4.69 21 -2.38 21 0 21 C0 18.69 0 16.38 0 14 C-2.31 14 -4.62 14 -7 14 C-7 11.69 -7 9.38 -7 7 C-4.69 7 -2.38 7 0 7 C0 4.69 0 2.38 0 0 Z " fill="#010101" transform="translate(66,4)"/>
<path d="M0 0 C2.31 0 4.62 0 7 0 C7 2.31 7 4.62 7 7 C11.62 7 16.24 7 21 7 C21 9.31 21 11.62 21 14 C25.62 14 30.24 14 35 14 C35 18.62 35 23.24 35 28 C37.31 28 39.62 28 42 28 C42 30.31 42 32.62 42 35 C35.07 35 28.14 35 21 35 C21 32.69 21 30.38 21 28 C18.69 28 16.38 28 14 28 C14 30.31 14 32.62 14 35 C11.69 35 9.38 35 7 35 C7 37.31 7 39.62 7 42 C4.69 42 2.38 42 0 42 C0 48.93 0 55.86 0 63 C-2.31 63 -4.62 63 -7 63 C-7 51.45 -7 39.9 -7 28 C-4.69 28 -2.38 28 0 28 C0 25.69 0 23.38 0 21 C-2.31 21 -4.62 21 -7 21 C-7 16.38 -7 11.76 -7 7 C-4.69 7 -2.38 7 0 7 C0 4.69 0 2.38 0 0 Z " fill="#000000" transform="translate(66,115)"/>
<path d="M0 0 C11.55 0 23.1 0 35 0 C35 2.31 35 4.62 35 7 C32.69 7 30.38 7 28 7 C28 9.31 28 11.62 28 14 C25.69 14 23.38 14 21 14 C21 18.62 21 23.24 21 28 C23.31 28 25.62 28 28 28 C28 30.31 28 32.62 28 35 C30.31 35 32.62 35 35 35 C35 37.31 35 39.62 35 42 C32.69 42 30.38 42 28 42 C28 44.31 28 46.62 28 49 C25.69 49 23.38 49 21 49 C21 46.69 21 44.38 21 42 C16.38 42 11.76 42 7 42 C7 48.93 7 55.86 7 63 C4.69 63 2.38 63 0 63 C0 46.83 0 30.66 0 14 C2.31 14 4.62 14 7 14 C7 16.31 7 18.62 7 21 C9.31 21 11.62 21 14 21 C14 16.38 14 11.76 14 7 C9.38 7 4.76 7 0 7 C0 4.69 0 2.38 0 0 Z " fill="#000000" transform="translate(4,59)"/>
<path d="M0 0 C15.84 0 31.68 0 48 0 C48 15.84 48 31.68 48 48 C32.16 48 16.32 48 0 48 C0 32.16 0 16.32 0 0 Z M7 7 C7 18.22 7 29.44 7 41 C18.22 41 29.44 41 41 41 C41 29.78 41 18.56 41 7 C29.78 7 18.56 7 7 7 Z " fill="#0C0C0C" transform="translate(4,4)"/>
<path d="M0 0 C15.84 0 31.68 0 48 0 C48 15.84 48 31.68 48 48 C32.16 48 16.32 48 0 48 C0 32.16 0 16.32 0 0 Z M7 7 C7 18.55 7 30.1 7 42 C18.55 42 30.1 42 42 42 C42 30.45 42 18.9 42 7 C30.45 7 18.9 7 7 7 Z " fill="#020202" transform="translate(4,129)"/>
<path d="M0 0 C15.84 0 31.68 0 48 0 C48 15.84 48 31.68 48 48 C32.16 48 16.32 48 0 48 C0 32.16 0 16.32 0 0 Z M7 7 C7 18.55 7 30.1 7 42 C18.55 42 30.1 42 42 42 C42 30.45 42 18.9 42 7 C30.45 7 18.9 7 7 7 Z " fill="#020202" transform="translate(129,4)"/>
<path d="M0 0 C8.91 0 17.82 0 27 0 C27 4.62 27 9.24 27 14 C22.71 14 18.42 14 14 14 C14 16.31 14 18.62 14 21 C15.98 21 17.96 21 20 21 C20 23.31 20 25.62 20 28 C13.4 28 6.8 28 0 28 C0 25.69 0 23.38 0 21 C-2.31 21 -4.62 21 -7 21 C-7 16.38 -7 11.76 -7 7 C-4.69 7 -2.38 7 0 7 C0 4.69 0 2.38 0 0 Z " fill="#010101" transform="translate(32,66)"/>
<path d="M0 0 C2.31 0 4.62 0 7 0 C7 6.93 7 13.86 7 21 C9.31 21 11.62 21 14 21 C14 23.31 14 25.62 14 28 C16.31 28 18.62 28 21 28 C21 30.31 21 32.62 21 35 C16.38 35 11.76 35 7 35 C7 32.69 7 30.38 7 28 C2.38 28 -2.24 28 -7 28 C-7 25.69 -7 23.38 -7 21 C-9.31 21 -11.62 21 -14 21 C-14 18.69 -14 16.38 -14 14 C-9.38 14 -4.76 14 0 14 C0 9.38 0 4.76 0 0 Z " fill="#FDFDFD" transform="translate(80,94)"/>
<path d="M0 0 C6.93 0 13.86 0 21 0 C21 6.93 21 13.86 21 21 C14.07 21 7.14 21 0 21 C0 14.07 0 7.14 0 0 Z " fill="#070707" transform="translate(18,143)"/>
<path d="M0 0 C6.93 0 13.86 0 21 0 C21 6.93 21 13.86 21 21 C14.07 21 7.14 21 0 21 C0 14.07 0 7.14 0 0 Z " fill="#FEFEFE" transform="translate(122,122)"/>
<path d="M0 0 C6.93 0 13.86 0 21 0 C21 6.93 21 13.86 21 21 C14.07 21 7.14 21 0 21 C0 14.07 0 7.14 0 0 Z " fill="#070707" transform="translate(143,18)"/>
<path d="M0 0 C2.31 0 4.62 0 7 0 C7 4.62 7 9.24 7 14 C4.69 14 2.38 14 0 14 C0 20.93 0 27.86 0 35 C-2.31 35 -4.62 35 -7 35 C-7 32.69 -7 30.38 -7 28 C-11.29 28 -15.58 28 -20 28 C-20 25.69 -20 23.38 -20 21 C-15.71 21 -11.42 21 -7 21 C-7 18.69 -7 16.38 -7 14 C-8.98 14 -10.96 14 -13 14 C-13 11.69 -13 9.38 -13 7 C-8.71 7 -4.42 7 0 7 C0 4.69 0 2.38 0 0 Z " fill="#FDFDFD" transform="translate(59,73)"/>
<path d="M0 0 C6.6 0 13.2 0 20 0 C20 6.6 20 13.2 20 20 C13.4 20 6.8 20 0 20 C0 13.4 0 6.8 0 0 Z " fill="#000000" transform="translate(18,18)"/>
<path d="M0 0 C4.62 0 9.24 0 14 0 C14 4.62 14 9.24 14 14 C4.76 14 -4.48 14 -14 14 C-14 16.31 -14 18.62 -14 21 C-16.31 21 -18.62 21 -21 21 C-21 16.38 -21 11.76 -21 7 C-14.07 7 -7.14 7 0 7 C0 4.69 0 2.38 0 0 Z " fill="#FEFEFE" transform="translate(129,150)"/>
<path d="M0 0 C4.62 0 9.24 0 14 0 C14 9.24 14 18.48 14 28 C7.07 28 0.14 28 -7 28 C-7 25.69 -7 23.38 -7 21 C-2.38 21 2.24 21 7 21 C7 16.38 7 11.76 7 7 C4.69 7 2.38 7 0 7 C0 4.69 0 2.38 0 0 Z " fill="#000000" transform="translate(164,108)"/>
<path d="M0 0 C4.62 0 9.24 0 14 0 C14 4.62 14 9.24 14 14 C16.31 14 18.62 14 21 14 C21 16.31 21 18.62 21 21 C16.38 21 11.76 21 7 21 C7 16.38 7 11.76 7 7 C4.69 7 2.38 7 0 7 C0 4.69 0 2.38 0 0 Z " fill="#000000" transform="translate(94,157)"/>
<path d="M0 0 C2.31 0 4.62 0 7 0 C7 6.93 7 13.86 7 21 C4.69 21 2.38 21 0 21 C0 23.31 0 25.62 0 28 C-2.31 28 -4.62 28 -7 28 C-7 23.38 -7 18.76 -7 14 C-4.69 14 -2.38 14 0 14 C0 9.38 0 4.76 0 0 Z " fill="#FDFDFD" transform="translate(115,59)"/>
<path d="M0 0 C2.31 0 4.62 0 7 0 C7 2.31 7 4.62 7 7 C9.31 7 11.62 7 14 7 C14 9.31 14 11.62 14 14 C7.07 14 0.14 14 -7 14 C-7 11.69 -7 9.38 -7 7 C-4.69 7 -2.38 7 0 7 C0 4.69 0 2.38 0 0 Z " fill="#010101" transform="translate(164,164)"/>
<path d="M0 0 C2.31 0 4.62 0 7 0 C7 2.31 7 4.62 7 7 C9.31 7 11.62 7 14 7 C14 11.62 14 16.24 14 21 C11.69 21 9.38 21 7 21 C7 18.69 7 16.38 7 14 C4.69 14 2.38 14 0 14 C0 9.38 0 4.76 0 0 Z " fill="#010101" transform="translate(136,59)"/>
<path d="M0 0 C2.31 0 4.62 0 7 0 C7 4.62 7 9.24 7 14 C9.31 14 11.62 14 14 14 C14 16.31 14 18.62 14 21 C9.38 21 4.76 21 0 21 C0 14.07 0 7.14 0 0 Z " fill="#000000" transform="translate(122,59)"/>
<path d="M0 0 C4.62 0 9.24 0 14 0 C14 4.62 14 9.24 14 14 C11.69 14 9.38 14 7 14 C7 11.69 7 9.38 7 7 C4.69 7 2.38 7 0 7 C0 4.69 0 2.38 0 0 Z " fill="#010101" transform="translate(164,150)"/>
<path d="M0 0 C4.62 0 9.24 0 14 0 C14 4.62 14 9.24 14 14 C11.69 14 9.38 14 7 14 C7 11.69 7 9.38 7 7 C4.69 7 2.38 7 0 7 C0 4.69 0 2.38 0 0 Z " fill="#010101" transform="translate(164,87)"/>
<path d="M0 0 C2.31 0 4.62 0 7 0 C7 6.6 7 13.2 7 20 C4.69 20 2.38 20 0 20 C0 13.4 0 6.8 0 0 Z " fill="#000000" transform="translate(87,46)"/>
<path d="M0 0 C2.31 0 4.62 0 7 0 C7 6.6 7 13.2 7 20 C4.69 20 2.38 20 0 20 C0 13.4 0 6.8 0 0 Z " fill="#000000" transform="translate(73,32)"/>
<path d="M0 0 C2.31 0 4.62 0 7 0 C7 4.62 7 9.24 7 14 C4.69 14 2.38 14 0 14 C0 9.38 0 4.76 0 0 Z " fill="#010101" transform="translate(80,143)"/>
<path d="M0 0 C2.31 0 4.62 0 7 0 C7 4.62 7 9.24 7 14 C4.69 14 2.38 14 0 14 C0 9.38 0 4.76 0 0 Z " fill="#FDFDFD" transform="translate(101,129)"/>
<path d="M0 0 C4.62 0 9.24 0 14 0 C14 2.31 14 4.62 14 7 C9.38 7 4.76 7 0 7 C0 4.69 0 2.38 0 0 Z " fill="#010101" transform="translate(25,115)"/>
<path d="M0 0 C4.62 0 9.24 0 14 0 C14 2.31 14 4.62 14 7 C9.38 7 4.76 7 0 7 C0 4.69 0 2.38 0 0 Z " fill="#FEFEFE" transform="translate(87,80)"/>
<path d="M0 0 C2.31 0 4.62 0 7 0 C7 4.62 7 9.24 7 14 C4.69 14 2.38 14 0 14 C0 9.38 0 4.76 0 0 Z " fill="#FDFDFD" transform="translate(25,73)"/>
<path d="M0 0 C4.62 0 9.24 0 14 0 C14 2.31 14 4.62 14 7 C9.38 7 4.76 7 0 7 C0 4.69 0 2.38 0 0 Z " fill="#FEFEFE" transform="translate(94,32)"/>
<path d="M0 0 C4.62 0 9.24 0 14 0 C14 2.31 14 4.62 14 7 C9.38 7 4.76 7 0 7 C0 4.69 0 2.38 0 0 Z " fill="#FEFEFE" transform="translate(101,18)"/>
<path d="M0 0 C2.31 0 4.62 0 7 0 C7 4.62 7 9.24 7 14 C4.69 14 2.38 14 0 14 C0 9.38 0 4.76 0 0 Z " fill="#FEFEFE" transform="translate(87,18)"/>
<path d="M0 0 C4.29 0 8.58 0 13 0 C13 2.31 13 4.62 13 7 C8.71 7 4.42 7 0 7 C0 4.69 0 2.38 0 0 Z " fill="#000000" transform="translate(39,101)"/>
<path d="M0 0 C4.29 0 8.58 0 13 0 C13 2.31 13 4.62 13 7 C8.71 7 4.42 7 0 7 C0 4.69 0 2.38 0 0 Z " fill="#FEFEFE" transform="translate(46,66)"/>
<path d="M0 0 C2.31 0 4.62 0 7 0 C7 4.29 7 8.58 7 13 C4.69 13 2.38 13 0 13 C0 8.71 0 4.42 0 0 Z " fill="#000000" transform="translate(59,39)"/>
<path d="M0 0 C2.31 0 4.62 0 7 0 C7 2.31 7 4.62 7 7 C4.69 7 2.38 7 0 7 C0 4.69 0 2.38 0 0 Z " fill="#010101" transform="translate(87,171)"/>
<path d="M0 0 C2.31 0 4.62 0 7 0 C7 2.31 7 4.62 7 7 C4.69 7 2.38 7 0 7 C0 4.69 0 2.38 0 0 Z " fill="#010101" transform="translate(73,171)"/>
<path d="M0 0 C2.31 0 4.62 0 7 0 C7 2.31 7 4.62 7 7 C4.69 7 2.38 7 0 7 C0 4.69 0 2.38 0 0 Z " fill="#FDFDFD" transform="translate(157,164)"/>
<path d="M0 0 C2.31 0 4.62 0 7 0 C7 2.31 7 4.62 7 7 C4.69 7 2.38 7 0 7 C0 4.69 0 2.38 0 0 Z " fill="#010101" transform="translate(80,164)"/>
<path d="M0 0 C2.31 0 4.62 0 7 0 C7 2.31 7 4.62 7 7 C4.69 7 2.38 7 0 7 C0 4.69 0 2.38 0 0 Z " fill="#FEFEFE" transform="translate(164,157)"/>
<path d="M0 0 C2.31 0 4.62 0 7 0 C7 2.31 7 4.62 7 7 C4.69 7 2.38 7 0 7 C0 4.69 0 2.38 0 0 Z " fill="#010101" transform="translate(157,157)"/>
<path d="M0 0 C2.31 0 4.62 0 7 0 C7 2.31 7 4.62 7 7 C4.69 7 2.38 7 0 7 C0 4.69 0 2.38 0 0 Z " fill="#FDFDFD" transform="translate(108,143)"/>
<path d="M0 0 C2.31 0 4.62 0 7 0 C7 2.31 7 4.62 7 7 C4.69 7 2.38 7 0 7 C0 4.69 0 2.38 0 0 Z " fill="#FDFDFD" transform="translate(80,143)"/>
<path d="M0 0 C2.31 0 4.62 0 7 0 C7 2.31 7 4.62 7 7 C4.69 7 2.38 7 0 7 C0 4.69 0 2.38 0 0 Z " fill="#010101" transform="translate(129,129)"/>
<path d="M0 0 C2.31 0 4.62 0 7 0 C7 2.31 7 4.62 7 7 C4.69 7 2.38 7 0 7 C0 4.69 0 2.38 0 0 Z " fill="#FDFDFD" transform="translate(108,122)"/>
<path d="M0 0 C2.31 0 4.62 0 7 0 C7 2.31 7 4.62 7 7 C4.69 7 2.38 7 0 7 C0 4.69 0 2.38 0 0 Z " fill="#000000" transform="translate(101,122)"/>
<path d="M0 0 C2.31 0 4.62 0 7 0 C7 2.31 7 4.62 7 7 C4.69 7 2.38 7 0 7 C0 4.69 0 2.38 0 0 Z " fill="#FEFEFE" transform="translate(101,115)"/>
<path d="M0 0 C2.31 0 4.62 0 7 0 C7 2.31 7 4.62 7 7 C4.69 7 2.38 7 0 7 C0 4.69 0 2.38 0 0 Z " fill="#010101" transform="translate(94,115)"/>
<path d="M0 0 C2.31 0 4.62 0 7 0 C7 2.31 7 4.62 7 7 C4.69 7 2.38 7 0 7 C0 4.69 0 2.38 0 0 Z " fill="#FDFDFD" transform="translate(59,115)"/>
<path d="M0 0 C2.31 0 4.62 0 7 0 C7 2.31 7 4.62 7 7 C4.69 7 2.38 7 0 7 C0 4.69 0 2.38 0 0 Z " fill="#FDFDFD" transform="translate(108,108)"/>
<path d="M0 0 C2.31 0 4.62 0 7 0 C7 2.31 7 4.62 7 7 C4.69 7 2.38 7 0 7 C0 4.69 0 2.38 0 0 Z " fill="#FDFDFD" transform="translate(94,108)"/>
<path d="M0 0 C2.31 0 4.62 0 7 0 C7 2.31 7 4.62 7 7 C4.69 7 2.38 7 0 7 C0 4.69 0 2.38 0 0 Z " fill="#010101" transform="translate(18,108)"/>
<path d="M0 0 C2.31 0 4.62 0 7 0 C7 2.31 7 4.62 7 7 C4.69 7 2.38 7 0 7 C0 4.69 0 2.38 0 0 Z " fill="#010101" transform="translate(157,101)"/>
<path d="M0 0 C2.31 0 4.62 0 7 0 C7 2.31 7 4.62 7 7 C4.69 7 2.38 7 0 7 C0 4.69 0 2.38 0 0 Z " fill="#FDFDFD" transform="translate(115,101)"/>
<path d="M0 0 C2.31 0 4.62 0 7 0 C7 2.31 7 4.62 7 7 C4.69 7 2.38 7 0 7 C0 4.69 0 2.38 0 0 Z " fill="#010101" transform="translate(25,101)"/>
<path d="M0 0 C2.31 0 4.62 0 7 0 C7 2.31 7 4.62 7 7 C4.69 7 2.38 7 0 7 C0 4.69 0 2.38 0 0 Z " fill="#FEFEFE" transform="translate(108,94)"/>
<path d="M0 0 C2.31 0 4.62 0 7 0 C7 2.31 7 4.62 7 7 C4.69 7 2.38 7 0 7 C0 4.69 0 2.38 0 0 Z " fill="#FDFDFD" transform="translate(94,94)"/>
<path d="M0 0 C2.31 0 4.62 0 7 0 C7 2.31 7 4.62 7 7 C4.69 7 2.38 7 0 7 C0 4.69 0 2.38 0 0 Z " fill="#010101" transform="translate(32,94)"/>
<path d="M0 0 C2.31 0 4.62 0 7 0 C7 2.31 7 4.62 7 7 C4.69 7 2.38 7 0 7 C0 4.69 0 2.38 0 0 Z " fill="#FCFCFC" transform="translate(25,94)"/>
<path d="M0 0 C2.31 0 4.62 0 7 0 C7 2.31 7 4.62 7 7 C4.69 7 2.38 7 0 7 C0 4.69 0 2.38 0 0 Z " fill="#FDFDFD" transform="translate(73,87)"/>
<path d="M0 0 C2.31 0 4.62 0 7 0 C7 2.31 7 4.62 7 7 C4.69 7 2.38 7 0 7 C0 4.69 0 2.38 0 0 Z " fill="#FDFDFD" transform="translate(32,87)"/>
<path d="M0 0 C2.31 0 4.62 0 7 0 C7 2.31 7 4.62 7 7 C4.69 7 2.38 7 0 7 C0 4.69 0 2.38 0 0 Z " fill="#FDFDFD" transform="translate(11,87)"/>
<path d="M0 0 C2.31 0 4.62 0 7 0 C7 2.31 7 4.62 7 7 C4.69 7 2.38 7 0 7 C0 4.69 0 2.38 0 0 Z " fill="#010101" transform="translate(157,73)"/>
<path d="M0 0 C2.31 0 4.62 0 7 0 C7 2.31 7 4.62 7 7 C4.69 7 2.38 7 0 7 C0 4.69 0 2.38 0 0 Z " fill="#010101" transform="translate(171,66)"/>
<path d="M0 0 C2.31 0 4.62 0 7 0 C7 2.31 7 4.62 7 7 C4.69 7 2.38 7 0 7 C0 4.69 0 2.38 0 0 Z " fill="#FDFDFD" transform="translate(32,66)"/>
<path d="M0 0 C2.31 0 4.62 0 7 0 C7 2.31 7 4.62 7 7 C4.69 7 2.38 7 0 7 C0 4.69 0 2.38 0 0 Z " fill="#010101" transform="translate(164,59)"/>
<path d="M0 0 C2.31 0 4.62 0 7 0 C7 2.31 7 4.62 7 7 C4.69 7 2.38 7 0 7 C0 4.69 0 2.38 0 0 Z " fill="#010101" transform="translate(150,59)"/>
<path d="M0 0 C2.31 0 4.62 0 7 0 C7 2.31 7 4.62 7 7 C4.69 7 2.38 7 0 7 C0 4.69 0 2.38 0 0 Z " fill="#010101" transform="translate(87,32)"/>
<path d="M0 0 C2.31 0 4.62 0 7 0 C7 2.31 7 4.62 7 7 C4.69 7 2.38 7 0 7 C0 4.69 0 2.38 0 0 Z " fill="#FDFDFD" transform="translate(73,25)"/>
</svg>
